<svg version="1.1" width="230" height="129" viewBox="2 -1 230 129" xmlns="http://www.w3.org/2000/svg" xmlns:xlink="http://www.w3.org/1999/xlink">
  <defs>
    <radialGradient id="grad_1" cx="0.5085999999999999" cy="0.6465000000000001" r="0.8404500000000001">
      <stop offset="0" stop-color="#990000" stop-opacity="1"/>
      <stop offset="1" stop-color="#CC0000" stop-opacity="1"/>
    </radialGradient>
    <radialGradient id="grad_2" cx="0.6981999999999999" cy="0.5775" r="0.90766">
      <stop offset="0" stop-color="#FF9400" stop-opacity="1"/>
      <stop offset="1" stop-color="#FFFF00" stop-opacity="1"/>
    </radialGradient>
    <radialGradient id="grad_3" cx="0.6213000000000001" cy="0.16510000000000002" r="1.0853700000000002">
      <stop offset="0" stop-color="#FF9400" stop-opacity="1"/>
      <stop offset="1" stop-color="#FFFF00" stop-opacity="1"/>
    </radialGradient>
    <radialGradient id="grad_4" cx="0.4717" cy="0.20010000000000003" r="1.0398699999999999">
      <stop offset="0" stop-color="#990000" stop-opacity="1"/>
      <stop offset="1" stop-color="#CC0000" stop-opacity="1"/>
    </radialGradient>
  </defs>
  <!-- Exported by Scratch - http://scratch.mit.edu/ -->
  <path id="ID0.49698409996926785" fill="url(#grad_1)" stroke="none" d="M 261.500 157 C 269.501 157 276.751 160.250 282.001 165.499 C 287.250 170.749 290.500 177.999 290.500 186 C 290.500 194.001 287.250 201.251 282.001 206.501 C 276.751 211.750 269.501 215 261.500 215 C 253.499 215 246.249 211.750 240.999 206.501 C 235.750 201.251 232.500 194.001 232.500 186 C 232.500 177.999 235.750 170.749 240.999 165.499 C 246.249 160.250 253.499 157 261.500 157 Z " transform="matrix(1, 0, 0, 1, -113, -154)"/>
  <path id="ID0.49698409996926785" fill="url(#grad_2)" stroke="none" d="M 261.500 157 C 269.501 157 276.751 160.250 282.001 165.499 C 287.250 170.749 290.500 177.999 290.500 186 C 290.500 194.001 287.250 201.251 282.001 206.501 C 276.751 211.750 269.501 215 261.500 215 C 253.499 215 246.249 211.750 240.999 206.501 C 235.750 201.251 232.500 194.001 232.500 186 C 232.500 177.999 235.750 170.749 240.999 165.499 C 246.249 160.250 253.499 157 261.500 157 Z " transform="matrix(1, 0, 0, 1, -172, -153)"/>
  <path id="ID0.189434006344527" fill="url(#grad_3)" stroke="none" stroke-linecap="round" d="M 183 208.500 L 233.500 184.950 L 234.500 262.450 L 183 208.500 Z " transform="matrix(1, 0, 0, 1.0064934492111206, -113, -155.15)"/>
  <path id="ID0.189434006344527" fill="url(#grad_4)" stroke="none" stroke-linecap="round" d="M 183 208.500 L 235.250 184.500 L 234.200 262.700 L 183 208.500 Z " transform="matrix(-0.9270833730697632, 2.465190328815662e-32, 0, 0.9843727350234985, 338.1, -151.1)"/>
  <path id="ID0.7929046894423664" fill="none" stroke="#000000" stroke-width="6" stroke-linecap="round" d="M 241.500 204.500 C 241.500 204.500 264.844 204.108 276.500 204 C 279.413 203.982 281.943 202.814 282 204.500 C 282.193 206.814 279.308 209.158 277 212 C 267.769 223.371 258.019 234.361 248.500 245.500 C 245.966 248.466 243.584 251.356 241 254.500 C 238.920 256.683 236.786 260.827 234.500 261.500 C 233.245 261.862 234.105 261.846 234 256 C 233.579 232.615 231.606 208.681 233 185 C 233.471 179.199 235.874 173.582 239.500 169 C 243.295 164.231 248.580 159.903 254.500 158.500 C 260.851 156.997 267.819 158.195 274 160.500 C 278.251 161.846 281.965 165.286 284.500 169 C 287.498 173.399 288.415 179.165 289.500 184.500 C 290.117 185.889 289.500 189 289.500 189 " transform="matrix(1, 0, 0, 1, -113, -154)"/>
  <path id="ID0.5905847330577672" fill="none" stroke="#000000" stroke-width="6" stroke-linecap="round" d="M 190 162.500 C 190 162.500 181.635 167.942 179 172 C 176.589 175.724 175.807 179.991 175.500 184 C 175.296 188.346 175.920 192.897 177.500 196.500 C 179.336 200.641 182.107 204.803 185.500 207.500 C 187.061 208.754 188.122 207.978 191.500 208 C 204.790 208.088 231.500 208 231.500 208 " transform="matrix(1, 0, 0, 1, -113, -154)"/>
  <path id="ID0.5028531416319311" fill="none" stroke="#000000" stroke-width="6" stroke-linecap="round" d="M 233 182 C 232.851 186.916 232.500 188.110 232.500 188.500 C 232.500 188.597 233.017 190.050 233 190 Z " transform="matrix(1, 0, 0, 1, -113, -154)"/>
  <text id="ID0.6123408302664757" fill="#000000" x="203.5" y="271.25" text-anchor="start" font-family="Helvetica" font-size="22" transform="matrix(1, 0, 0, 1, 0, 100.65)">4 The Love of Gaming</text>
</svg>